<?xml version="1.0" encoding="iso-8859-1"?>
<!-- Generator: Adobe Illustrator 19.0.0, SVG Export Plug-In . SVG Version: 6.00 Build 0)  -->
<svg version="1.1" id="Capa_1" xmlns="http://www.w3.org/2000/svg" xmlns:xlink="http://www.w3.org/1999/xlink" x="0px" y="0px"
	 viewBox="0 0 512.001 512.001" style="enable-background:new 0 0 512.001 512.001;" xml:space="preserve">
<g>
	<g>
		<path d="M509.786,49.247c0.738,0.738,1.466,1.465-0.011-0.012c-1.476-1.475-0.75-0.748-0.012-0.011
			c-2.968-2.954-7.769-2.951-10.734,0.011L468.564,79.7c-1.895,1.896-4.413,2.938-7.093,2.938c-2.678,0-5.197-1.043-7.091-2.938
			l-14.344-14.343c-9.836-9.834-25.839-9.832-35.673,0l-21.96,21.96l-1.306-1.306c-1.966-1.965-4.579-3.048-7.36-3.048
			c-2.781,0-5.395,1.083-7.359,3.048l-13.958,13.96l-5.093-5.093l10.21-10.21c3.155-3.156,4.544-7.658,3.712-12.044
			c-0.83-4.383-3.767-8.065-7.856-9.848l-69.723-30.413c-14.631-6.383-31.383-3.214-42.675,8.076l-61.167,61.167l-43.219,43.219
			l-58.465,58.464l-25.795,25.795c-8.318,8.318-16.781,16.46-23.854,25.91c-12.32,16.461-21.001,35.543-25.225,55.663
			c-1.238,5.897-2.155,11.853-2.665,17.858c-0.252,2.959-0.411,5.927-0.477,8.896c-0.066,2.968-0.329,6.208,0.16,9.145
			c1.475,34.429,15.32,68.42,41.549,94.65c27.793,27.792,64.3,41.687,100.806,41.687c8.973,0,17.946-0.845,26.789-2.524
			c0.302-0.022,0.603-0.057,0.905-0.116c14.606-2.879,28.516-8.003,41.354-15.118c11.637-6.43,22.358-14.529,31.758-23.93
			L411.726,272.93c2.966-2.967,2.966-7.778,0-10.746c-2.968-2.966-7.779-2.964-10.746,0l-54.252,54.253l-47.585-11.712
			c-2.583-0.636-5.308,0.125-7.189,2.005l-91.489,91.49c-0.528,0.529-0.977,1.134-1.329,1.794l-35.25,65.993
			c-6.953,1.161-14.05,1.76-21.24,1.76c-34.02,0-66.004-13.249-90.059-37.305c-21.691-21.689-34.59-49.824-36.919-80.083
			l73.185-28.632c7.533-2.947,13.857-8.081,18.29-14.851l7.188-10.979c2.299-3.511,1.315-8.22-2.196-10.519
			c-3.513-2.299-8.22-1.316-10.519,2.196l-7.187,10.98c-2.693,4.112-6.536,7.233-11.113,9.023l-67.867,26.551
			c0.364-7.273,1.36-14.471,2.942-21.521l55.543-20.83c1.362-0.511,2.549-1.402,3.419-2.568l22.55-30.184
			c1.312-1.756,1.802-3.994,1.342-6.139c-0.459-2.145-1.823-3.986-3.739-5.05l-27.284-15.151L85.125,217.8l25.338,11.858
			c1.036,0.485,2.133,0.717,3.216,0.717c2.457,0,4.844-1.194,6.298-3.342l40.697-60.186c2.039-3.015,1.653-7.055-0.921-9.629
			l-7.023-7.023l28.101-28.101l5.281,23.359c1.398,6.185,0.208,12.774-3.264,18.078l-62.773,95.875
			c-2.3,3.511-1.316,8.219,2.195,10.518c3.511,2.301,8.22,1.316,10.518-2.195l62.773-95.875c5.716-8.728,7.674-19.572,5.374-29.75
			l-7.396-32.716l58.205-58.205c6.84-6.842,16.987-8.76,25.853-4.894l67.42,29.409l-87.637,87.637
			c-5.756,5.757-8.651,13.708-7.945,21.818l2.814,32.319l-52.052,52.053c-2.966,2.967-2.966,7.778,0,10.746
			c1.484,1.483,3.429,2.225,5.373,2.225c1.944,0,3.889-0.742,5.373-2.225l52.052-52.053l32.32,2.815
			c8.108,0.708,16.061-2.191,21.819-7.946l52.65-52.65l21.18-21.18l14.819-14.819l30.976,71.012
			c3.867,8.865,1.946,19.014-4.894,25.854l-7.703,7.704c-2.966,2.966-2.966,7.778,0.001,10.745
			c2.965,2.965,7.776,2.966,10.745-0.001l7.703-7.703c11.289-11.29,14.459-28.041,8.076-42.675l-31.98-73.313
			c-1.785-4.09-5.467-7.028-9.851-7.857c-4.389-0.832-8.885,0.558-12.043,3.713l-11.223,11.223l-5.656-5.656l13.959-13.959
			c1.965-1.966,3.048-4.579,3.048-7.36c0-2.779-1.082-5.393-3.048-7.358l-0.744-0.744l21.96-21.961
			c3.911-3.911,10.275-3.909,14.184,0l14.343,14.342c4.764,4.765,11.099,7.389,17.837,7.389s13.073-2.623,17.838-7.388
			l30.465-30.465C512.739,57.016,512.742,52.216,509.786,49.247z M212.008,408.166l87.663-87.664l34.5,8.492L232.705,430.459
			c-3.48,3.48-7.167,6.768-11.024,9.826c-11.384,9.03-24.166,16.006-37.873,20.673L212.008,408.166z M82.524,256.918l-16.012,21.433
			l-42.551,15.957c4.914-12.659,11.838-24.533,20.559-35.093c4.499-5.438,9.54-10.349,14.525-15.334L82.524,256.918z
			 M111.024,213.145l-14.471-6.773l45.432-45.432l2.589,2.59L111.024,213.145z M306.385,212.34c-2.575,2.576-6.13,3.874-9.755,3.553
			l-19.605-1.708l49.804-49.804c2.966-2.967,2.966-7.778,0-10.746c-2.967-2.965-7.778-2.965-10.746,0l-49.804,49.804l-1.708-19.605
			c-0.316-3.625,0.98-7.183,3.553-9.755l47.277-47.277l38.26,38.261L306.385,212.34z M364.408,154.318l-38.26-38.261l10.434-10.434
			l38.261,38.261L364.408,154.318z M370.905,115.018l-6.021-6.022l8.854-8.854l6.021,6.021L370.905,115.018z"/>
	</g>
</g>
<g>
	<g>
		<circle cx="139.275" cy="306.952" r="7.598"/>
	</g>
</g>
<g>
	<g>
		<circle cx="156.501" cy="278.298" r="7.598"/>
	</g>
</g>
<g>
	<g>
		<circle cx="171.689" cy="251.443" r="7.598"/>
	</g>
</g>
<g>
	<g>
		<circle cx="185.916" cy="224.588" r="7.598"/>
	</g>
</g>
<g>
	<g>
		<circle cx="341.477" cy="291.755" r="7.598"/>
	</g>
</g>
<g>
	<g>
		<circle cx="363.223" cy="270.699" r="7.598"/>
	</g>
</g>
<g>
</g>
<g>
</g>
<g>
</g>
<g>
</g>
<g>
</g>
<g>
</g>
<g>
</g>
<g>
</g>
<g>
</g>
<g>
</g>
<g>
</g>
<g>
</g>
<g>
</g>
<g>
</g>
<g>
</g>
</svg>
